<svg width="19" height="20" viewBox="0 0 19 20" fill="none" xmlns="http://www.w3.org/2000/svg">
<path d="M18.875 10C18.875 10.2984 18.7565 10.5845 18.5455 10.7955C18.3345 11.0065 18.0484 11.125 17.75 11.125H10.625V18.25C10.625 18.5484 10.5065 18.8345 10.2955 19.0455C10.0845 19.2565 9.79837 19.375 9.5 19.375C9.20163 19.375 8.91548 19.2565 8.7045 19.0455C8.49353 18.8345 8.375 18.5484 8.375 18.25V11.125H1.25C0.951631 11.125 0.665483 11.0065 0.454505 10.7955C0.243526 10.5845 0.125 10.2984 0.125 10C0.125 9.70163 0.243526 9.41548 0.454505 9.2045C0.665483 8.99353 0.951631 8.875 1.25 8.875H8.375V1.75C8.375 1.45163 8.49353 1.16548 8.7045 0.954505C8.91548 0.743526 9.20163 0.625 9.5 0.625C9.79837 0.625 10.0845 0.743526 10.2955 0.954505C10.5065 1.16548 10.625 1.45163 10.625 1.75V8.875H17.75C18.0484 8.875 18.3345 8.99353 18.5455 9.2045C18.7565 9.41548 18.875 9.70163 18.875 10Z" fill="#1A1A1A"/>
</svg>
