<svg width="24" height="24" viewBox="0 0 24 24" fill="none" xmlns="http://www.w3.org/2000/svg">
<path d="M23.5311 11.5434C23.4964 11.4675 22.6752 9.64406 20.8611 7.83C18.4339 5.40656 15.3749 4.125 11.9999 4.125C8.62488 4.125 5.56582 5.40656 3.14144 7.83C1.32738 9.64406 0.50613 11.4675 0.46863 11.5434C0.405117 11.6874 0.372314 11.8431 0.372314 12.0005C0.372314 12.1579 0.405117 12.3135 0.46863 12.4575C0.503317 12.5344 1.32457 14.3569 3.13957 16.1709C5.56582 18.5944 8.62488 19.875 11.9999 19.875C15.3749 19.875 18.4339 18.5944 20.8574 16.1709C22.6724 14.3569 23.4936 12.5344 23.5283 12.4575C23.5923 12.3137 23.6256 12.1581 23.626 12.0008C23.6265 11.8434 23.5942 11.6876 23.5311 11.5434ZM19.213 14.6372C17.2002 16.6191 14.7739 17.625 11.9999 17.625C9.22582 17.625 6.79957 16.6191 4.78957 14.6362C3.99864 13.8537 3.31829 12.9667 2.76738 12C3.31845 11.0337 3.99879 10.1471 4.78957 9.36469C6.8005 7.38094 9.22582 6.375 11.9999 6.375C14.7739 6.375 17.1993 7.38094 19.2102 9.36469C20.0011 10.147 20.6814 11.0336 21.2324 12C20.6814 12.9666 20.001 13.8536 19.2102 14.6362L19.213 14.6372ZM11.9999 7.875C11.184 7.875 10.3865 8.11693 9.70815 8.57019C9.0298 9.02345 8.50109 9.66769 8.18888 10.4214C7.87667 11.1752 7.79498 12.0046 7.95414 12.8047C8.11331 13.6049 8.50617 14.3399 9.08306 14.9168C9.65996 15.4937 10.395 15.8866 11.1951 16.0457C11.9953 16.2049 12.8247 16.1232 13.5784 15.811C14.3322 15.4988 14.9764 14.9701 15.4297 14.2917C15.883 13.6134 16.1249 12.8158 16.1249 12C16.1236 10.9064 15.6886 9.85787 14.9153 9.08455C14.142 8.31124 13.0935 7.87624 11.9999 7.875ZM11.9999 13.875C11.629 13.875 11.2665 13.765 10.9582 13.559C10.6498 13.353 10.4095 13.0601 10.2676 12.7175C10.1257 12.3749 10.0886 11.9979 10.1609 11.6342C10.2333 11.2705 10.4118 10.9364 10.6741 10.6742C10.9363 10.412 11.2704 10.2334 11.6341 10.161C11.9978 10.0887 12.3748 10.1258 12.7174 10.2677C13.06 10.4096 13.3529 10.65 13.5589 10.9583C13.7649 11.2666 13.8749 11.6292 13.8749 12C13.8749 12.4973 13.6773 12.9742 13.3257 13.3258C12.9741 13.6775 12.4972 13.875 11.9999 13.875Z" fill="#1A1A1A"/>
</svg>
