<?xml version="1.0" encoding="iso-8859-1"?>
<!-- Uploaded to: SVG Repo, www.svgrepo.com, Generator: SVG Repo Mixer Tools -->
<svg height="800px" width="800px" version="1.1" id="Layer_1" xmlns="http://www.w3.org/2000/svg" xmlns:xlink="http://www.w3.org/1999/xlink" 
	 viewBox="0 0 512 512" xml:space="preserve">
<path style="fill:#FFE6B8;" d="M429.295,252.27h-59.136l-53.076-75.467c-7.99-11.362-21.011-18.122-34.901-18.122H179.901
	c-18.418,0-34.756,11.818-40.522,29.308l-21.192,64.28H89.904c-22.436,0-40.624,18.188-40.624,40.624v52.965h420.639v-52.965
	C469.919,270.458,451.731,252.27,429.295,252.27z"/>
<path style="fill:#73C1DD;" d="M330.017,252.784l-41.693-59.283c-1.749-2.487-4.6-3.967-7.64-3.967h-99.76
	c-4.032,0-7.609,2.587-8.87,6.416l-18.737,56.834H330.017z"/>
<g>
	<circle style="fill:#666666;" cx="148.531" cy="344.315" r="46.795"/>
	<circle style="fill:#666666;" cx="362.449" cy="344.315" r="46.795"/>
</g>
<g>
	<circle style="fill:#F2F2F2;" cx="148.531" cy="344.315" r="14.974"/>
	<circle style="fill:#F2F2F2;" cx="362.449" cy="344.315" r="14.974"/>
	<path style="fill:#F2F2F2;" d="M23.569,345.86h49.365v-44.224H23.569c-7.384,0-13.37,5.986-13.37,13.37v17.483
		C10.199,339.874,16.185,345.86,23.569,345.86z"/>
	<path style="fill:#F2F2F2;" d="M488.431,345.86h-49.365v-44.224h49.366c7.384,0,13.37,5.986,13.37,13.37v17.483
		C501.801,339.874,495.815,345.86,488.431,345.86z"/>
</g>
<path style="fill:#FFE6B8;" d="M232.542,120.888L232.542,120.888v37.737h29.578v-8.159
	C262.12,134.131,248.877,120.888,232.542,120.888z"/>
<g>
	<path style="fill:#4D3D36;" d="M153.315,262.983h176.7c3.806,0,7.297-2.12,9.052-5.499c1.754-3.379,1.481-7.454-0.709-10.567
		l-41.693-59.283c-3.654-5.197-9.629-8.299-15.982-8.299h-99.76c-8.453,0-15.911,5.394-18.556,13.422l-18.737,56.834
		c-1.025,3.108-0.496,6.519,1.423,9.17C146.969,261.414,150.044,262.983,153.315,262.983z M310.374,242.585h-67.829v-42.852h37.692
		L310.374,242.585z M181.545,199.734h40.602v42.852h-54.729L181.545,199.734z"/>
	<path style="fill:#4D3D36;" d="M148.526,319.143c-13.88,0-25.174,11.293-25.174,25.174c0,13.88,11.293,25.174,25.174,25.174
		c13.881,0,25.174-11.293,25.174-25.174S162.407,319.143,148.526,319.143z M148.526,349.092c-2.633,0-4.775-2.142-4.775-4.775
		c0-2.633,2.142-4.775,4.775-4.775c2.633,0,4.775,2.143,4.775,4.775S151.159,349.092,148.526,349.092z"/>
	<path style="fill:#4D3D36;" d="M362.445,319.143c-13.88,0-25.174,11.293-25.174,25.174c0,13.88,11.293,25.174,25.174,25.174
		s25.174-11.293,25.174-25.174S376.326,319.143,362.445,319.143z M362.445,349.092c-2.632,0-4.775-2.142-4.775-4.775
		c0-2.633,2.143-4.775,4.775-4.775s4.775,2.143,4.775,4.775S365.077,349.092,362.445,349.092z"/>
	<path style="fill:#4D3D36;" d="M488.432,356.058c12.996,0,23.568-10.574,23.568-23.569v-17.483
		c0-12.996-10.572-23.569-23.568-23.569h-8.351c-0.776-27.351-23.251-49.365-50.786-49.365h-53.841l-50.029-71.135
		c-9.887-14.061-26.054-22.455-43.243-22.455h-9.914c-1.037-21.014-18.458-37.792-39.727-37.792
		c-5.633,0-10.199,4.566-10.199,10.199v27.593h-42.442c-22.871,0-43.049,14.594-50.209,36.314L110.81,242.07H89.904
		c-27.535,0-50.01,22.015-50.786,49.365H23.569C10.574,291.437,0,302.01,0,315.006v17.483c0,12.996,10.574,23.569,23.569,23.569
		h69.185c5.428,25.811,28.369,45.252,55.771,45.252s50.343-19.441,55.771-45.252h102.376c5.428,25.811,28.37,45.252,55.771,45.252
		c27.401,0,50.343-19.441,55.771-45.252h70.216V356.058z M242.741,133.994c4.96,3.082,8.433,8.342,9.073,14.432h-9.073V133.994z
		 M89.904,262.469h28.282c4.402,0,8.308-2.825,9.686-7.006l21.192-64.28c4.398-13.341,16.79-22.303,30.836-22.303h102.282
		c10.557,0,20.485,5.156,26.558,13.79l53.076,75.467c1.91,2.716,5.023,4.333,8.343,4.333h59.136
		c16.287,0,29.624,12.865,30.388,28.967h-20.618c-5.632,0-10.199,4.566-10.199,10.199v34.025h-10.083
		c-4.183-27.333-27.854-48.337-56.337-48.337c-28.483,0-52.155,21.004-56.337,48.337H204.864
		c-4.183-27.333-27.853-48.337-56.337-48.337s-52.155,21.004-56.337,48.337h-9.056v-34.025c0-5.633-4.566-10.199-10.199-10.199
		H59.516C60.28,275.335,73.617,262.469,89.904,262.469z M23.569,335.66c-1.748,0-3.171-1.423-3.171-3.171v-17.483
		c0-1.748,1.423-3.171,3.171-3.171h39.166v23.825H23.569z M148.526,380.913c-20.179,0-36.596-16.417-36.596-36.595
		s16.417-36.596,36.596-36.596c20.179,0,36.596,16.417,36.596,36.596C185.122,364.497,168.705,380.913,148.526,380.913z
		 M362.445,380.913c-20.179,0-36.596-16.417-36.596-36.595s16.417-36.596,36.596-36.596s36.596,16.417,36.596,36.596
		C399.041,364.497,382.624,380.913,362.445,380.913z M449.264,335.66v-23.825h39.167c1.748,0,3.17,1.423,3.17,3.171v17.483
		c0,1.748-1.423,3.171-3.17,3.171L449.264,335.66L449.264,335.66z"/>
	<path style="fill:#4D3D36;" d="M297.817,297.334h-5.1c-5.632,0-10.199,4.566-10.199,10.199s4.567,10.199,10.199,10.199h5.1
		c5.632,0,10.199-4.566,10.199-10.199S303.449,297.334,297.817,297.334z"/>
	<path style="fill:#4D3D36;" d="M259.06,297.334h-6.12c-5.633,0-10.199,4.566-10.199,10.199s4.566,10.199,10.199,10.199h6.12
		c5.632,0,10.199-4.566,10.199-10.199S264.692,297.334,259.06,297.334z"/>
	<path style="fill:#4D3D36;" d="M289.657,282.036c0-5.633-4.567-10.199-10.199-10.199h-5.1c-5.632,0-10.199,4.566-10.199,10.199
		s4.567,10.199,10.199,10.199h5.1C285.09,292.235,289.657,287.669,289.657,282.036z"/>
	<path style="fill:#4D3D36;" d="M250.9,282.036c0-5.633-4.566-10.199-10.199-10.199h-6.12c-5.633,0-10.199,4.566-10.199,10.199
		s4.566,10.199,10.199,10.199h6.12C246.334,292.235,250.9,287.669,250.9,282.036z"/>
	<path style="fill:#4D3D36;" d="M318.215,271.836h-5.1c-5.632,0-10.199,4.566-10.199,10.199s4.567,10.199,10.199,10.199h5.1
		c5.632,0,10.199-4.566,10.199-10.199S323.847,271.836,318.215,271.836z"/>
	<path style="fill:#4D3D36;" d="M211.124,282.036c0-5.633-4.566-10.199-10.199-10.199h-6.12c-5.633,0-10.199,4.566-10.199,10.199
		s4.566,10.199,10.199,10.199h6.12C206.557,292.235,211.124,287.669,211.124,282.036z"/>
	<path style="fill:#4D3D36;" d="M219.283,297.334h-6.12c-5.633,0-10.199,4.566-10.199,10.199s4.566,10.199,10.199,10.199h6.12
		c5.633,0,10.199-4.566,10.199-10.199S224.916,297.334,219.283,297.334z"/>
</g>
</svg>